<?xml version="1.0" standalone="no"?>
<!DOCTYPE svg PUBLIC "-//W3C//DTD SVG 20010904//EN"
 "http://www.w3.org/TR/2001/REC-SVG-20010904/DTD/svg10.dtd">
<svg version="1.0" xmlns="http://www.w3.org/2000/svg"
 width="191.000000pt" height="191.000000pt" viewBox="0 0 191.000000 191.000000"
 preserveAspectRatio="xMidYMid meet">

<g transform="translate(0.000000,191.000000) scale(0.100000,-0.100000)"
fill="#000000" stroke="none">
<path d="M565 1900 c-224 -35 -404 -168 -496 -363 -62 -134 -64 -154 -64 -582
0 -437 2 -453 72 -595 51 -103 179 -231 278 -279 138 -68 164 -71 600 -71 439
0 451 1 593 71 145 71 263 203 320 361 l27 73 3 418 c3 355 1 427 -13 480 -48
189 -177 347 -352 429 -126 60 -136 61 -543 64 -206 1 -397 -1 -425 -6z m457
-406 l3 -256 201 174 c110 95 208 179 217 186 14 12 24 8 77 -29 33 -23 60
-43 60 -44 0 -2 -157 -138 -422 -367 -129 -112 -153 -128 -183 -128 -46 0 -81
23 -94 62 -12 34 -16 640 -4 651 3 4 37 7 74 7 l69 0 2 -256z m-387 -194 c226
-263 240 -282 243 -323 2 -36 -2 -48 -24 -70 l-27 -27 -327 0 -328 0 -6 23
c-3 12 -6 36 -6 54 0 66 -13 63 266 63 l255 0 -167 193 c-92 105 -178 204
-192 219 l-24 27 42 60 c24 34 46 61 49 60 3 0 114 -126 246 -279z m1105 -335
l0 -75 -251 -2 -252 -3 186 -215 c185 -214 186 -215 170 -240 -30 -47 -64 -90
-72 -90 -4 0 -91 95 -192 212 -304 351 -299 344 -299 386 0 42 22 79 54 92 11
5 164 9 339 9 l317 1 0 -75z m-764 -90 c61 -25 64 -44 64 -395 l0 -310 -75 0
-75 0 0 256 0 256 -147 -128 c-82 -71 -180 -156 -219 -191 l-71 -62 -61 42
c-34 23 -61 45 -59 48 5 13 542 473 566 485 32 17 34 17 77 -1z"/>
</g>
</svg>
